<svg class="main_heading-logo-graphic" enable-background="new 0 0 735 210" id="logo" version="1.1" viewBox="0 0 735 210" x="0px" xml:space="preserve" xmlns="http://www.w3.org/2000/svg" xmlns:xlink="http://www.w3.org/1999/xlink" y="0px" fill="#424347"><g><g><path class="logo-type first-letter" d="M323.1,150.9h-1.8c-2.3-13.7-10.3-23.5-24.8-23.5c-22.1,0-34.6,18.1-34.6,39c0,23.8,18.3,40.4,35.8,40.4
c15.9,0,22.1-11.6,27.6-24.7l1.7,0.7c-1.5,7.4-3.7,14.7-6.6,21.6c-7.7,3.8-16.1,5.2-24.7,5.2c-25.3,0-47.8-14.5-47.8-41.9
c0-21.5,16.8-43.3,48.8-43.3c9.2,0,18.5,1.8,26.5,6.5V150.9z"></path><path class="logo-type" d="M349.7,194.2c0,9.9,0.5,10.9,12.1,12.2v1.8h-30.3v-1.8c8.4-1.3,8.7-2.8,8.8-12.2v-23.1
c0-5.1,0.1-6.7-5.9-11v-1.2l14.4-5.3l1.3,0.5l-0.5,14.3h0.3c2.7-6.4,9.4-14.8,17-14.8c3.4,0,6.2,2.2,6.2,5.6
c0,3.3-3.5,6.3-6.3,7.6c-2-1.6-5.1-4.2-7.7-4c-10.3,1-9.4,17.4-9.4,19.2V194.2z"></path><path class="logo-type" d="M384.4,177.4c-1,12.6,7.6,24.3,21.3,24.3c6.3,0,10.6-2.8,14.3-7.6l1.8,1.3c-4.6,7.9-12.8,14-22.3,14
c-15,0-25.4-12.3-25.4-26.9c0-15.6,10.9-29.1,27.2-29.1c10.9,0,18.1,6.9,18.6,17.8h-35.1L384.4,177.4z M408.4,168.1
c-1.1-5.6-4.5-11.9-10.9-11.9c-6.9,0-11,6.8-12.4,12.8L408.4,168.1z"></path><path class="logo-type" d="M459.7,168.3l-2.6,0.5c-1.7-5.6-4.4-12.3-11.3-12.3c-5,0-8,3.6-8,8.5c0,12.5,25,12.1,25,27.7
c0,10.8-10.3,16.8-20.1,16.8c-5.3,0-10.5-1.4-14.8-4.5l-1-13.4l2.8-0.5c1.7,7.4,5.8,15.2,14.4,15.2c5.6,0,9.3-4.1,9.3-9.5
c0-13.8-25.1-11-25.1-28.3c0-9.4,8.8-14.9,17.4-14.9c4.7,0,9.6,1.3,13.4,4L459.7,168.3z"></path><path class="logo-type" d="M485.6,187c0,10.8,0.1,17.5,13.3,17.5c2.4,0,4.9-0.2,7.2-0.8l0.5,1.9c-6,2.3-12.4,3.9-19.1,3.9
c-11.7,0-11.1-6.2-11.1-15.5v-32.9h-8.1l-0.6-0.9l16.9-16.8h1.1V156h19.1v5.1h-19.1V187z"></path><path class="logo-type" d="M565.2,154.8v1.8c-7.5-0.4-10.3,9.3-13.1,15.9l-15.8,37h-2.1l-17.7-42.6c-2.3-5.4-3-9.7-9.9-10.3v-1.8
h25.1v1.8c-9,0-7.3,4.1-4.7,10.3l12.2,29.6l5.3-12.8c1.7-4.3,7.3-18.5,7.3-22.5c0-4-4.6-4.1-7.6-4.6v-1.8H565.2z"></path><path class="logo-type" d="M564.1,208.3v-1.8c9-1.3,9.3-2.8,9.4-12.2v-23.1c0-5.1,0.1-6.7-7.4-11v-1.2l15.3-5.3l1.3,0.5v40.2
c0,9.9,0.5,10.9,9.4,12.2v1.8H564.1z M583.9,130.7c0,3.4-2.8,6.2-6.2,6.2c-3.4,0-6.2-2.8-6.2-6.2c0-3.4,2.8-6.2,6.2-6.2
C581.1,124.5,583.9,127.3,583.9,130.7z"></path><path class="logo-type" d="M603.9,177.4c-1,12.6,7.6,24.3,21.3,24.3c6.3,0,10.6-2.8,14.3-7.6l1.8,1.3c-4.6,7.9-12.8,14-22.3,14
c-15,0-25.4-12.3-25.4-26.9c0-15.6,10.9-29.1,27.2-29.1c10.9,0,18.1,6.9,18.6,17.8h-35.1L603.9,177.4z M628,168.1
c-1.1-5.6-4.5-11.9-10.9-11.9c-6.9,0-11,6.8-12.3,12.8L628,168.1z"></path><path class="logo-type" d="M667.3,209.5h-1.8l-17.4-43.2c-2.2-5.2-3.5-9.3-10.1-9.7v-1.8h25.5v1.8c-8.9,0.2-7.4,4.1-5.2,9.8L670,196
l11.4-26.9c-3.8-9.7-3.9-11.5-11-12.6v-1.8h25.9v1.8c-9.1,0.4-7.9,4-6.4,8l11.9,31.5c4.8-10.8,13.3-29.4,13.3-35.1
c0-4-3.8-4-6.8-4.4v-1.8h20.4v1.8c-6.9,0.5-8.7,5.3-11.2,10.8l-18.9,42.1h-1.7l-14.4-36.8L667.3,209.5z"></path></g></g></svg>